<?xml version="1.0" encoding="UTF-8" standalone="no"?>
<svg
   xmlns:dc="http://purl.org/dc/elements/1.1/"
   xmlns:cc="http://creativecommons.org/ns#"
   xmlns:rdf="http://www.w3.org/1999/02/22-rdf-syntax-ns#"
   xmlns:svg="http://www.w3.org/2000/svg"
   xmlns="http://www.w3.org/2000/svg"
   xmlns:sodipodi="http://sodipodi.sourceforge.net/DTD/sodipodi-0.dtd"
   xmlns:inkscape="http://www.inkscape.org/namespaces/inkscape"
   id="Layer_1"
   data-name="Layer 1"
   viewBox="0 0 182 42"
   version="1.1"
   sodipodi:docname="logo-proximax-sirius-explorer-black.svg"
   inkscape:version="0.92.4 (unknown)"
   width="182"
   height="42">
  <metadata
     id="metadata89">
    <rdf:RDF>
      <cc:Work
         rdf:about="">
        <dc:format>image/svg+xml</dc:format>
        <dc:type
           rdf:resource="http://purl.org/dc/dcmitype/StillImage" />
        <dc:title>logo-proximax-sirius-explorer-beta</dc:title>
      </cc:Work>
    </rdf:RDF>
  </metadata>
  <sodipodi:namedview
     pagecolor="#ffffff"
     bordercolor="#666666"
     borderopacity="1"
     objecttolerance="10"
     gridtolerance="10"
     guidetolerance="10"
     inkscape:pageopacity="0"
     inkscape:pageshadow="2"
     inkscape:window-width="1920"
     inkscape:window-height="1017"
     id="namedview87"
     showgrid="false"
     inkscape:zoom="5.021978"
     inkscape:cx="157.33084"
     inkscape:cy="52.541542"
     inkscape:window-x="0"
     inkscape:window-y="30"
     inkscape:window-maximized="1"
     inkscape:current-layer="Layer_1"
     showguides="true"
     inkscape:guide-bbox="true">
    <sodipodi:guide
       position="17.163606,41.02"
       orientation="0,1"
       id="guide47"
       inkscape:locked="false" />
  </sodipodi:namedview>
  <defs
     id="defs4">
    <style
       id="style2">.cls-1{fill:#2aa0b8;}.cls-2{fill:#aaa;}.cls-3,.cls-8{fill:#f06622;}.cls-3,.cls-4,.cls-5,.cls-6{fill-rule:evenodd;}.cls-11,.cls-4{fill:#79b5e2;}.cls-10,.cls-5{fill:#1cb4ab;}.cls-6,.cls-9{fill:#f2a91d;}.cls-7{fill:#121212;}.cls-12{fill:#cd4f27;}.cls-13{fill:#c6862b;}.cls-14{fill:#009f90;}.cls-15{fill:#488ebe;}</style>
  </defs>
  <title
     id="title6">logo-proximax-sirius-explorer-beta</title>
  <path
     class="cls-3"
     d="m 26.473606,5.94 c 5.7,-1.62 8.12,-1.2 12.57,-0.74 a 44.61,44.61 0 0 0 -18.96,-4.32 c -1,0 -1.95,0 -2.92,0.1 a 17.85,17.85 0 0 1 3.93,3 c 0.68,0.69 2.07,2.31 3,2.48 a 6.31,6.31 0 0 0 2.35,-0.48"
     id="path44"
     inkscape:connector-curvature="0"
     style="fill:#f06622;fill-rule:evenodd" />
  <path
     class="cls-4"
     d="m 33.543606,29.26 c -0.5,-2.2 -1.15,-4.38 -1.83,-6.47 -0.35,-1.1 -0.74,-2.18 -1.12,-3.26 -0.38,-1.08 -0.79,-2.11 -1.22,-3.15 -1.9,-4.5 -1.7,-4.5 1.78,-6.5 2.36,-1.21 6.07,-2.91 8.73,-2.78 h 0.28 a 40.52,40.52 0 0 1 -6.62,22.13"
     id="path46"
     inkscape:connector-curvature="0"
     style="fill:#79b5e2;fill-rule:evenodd" />
  <path
     class="cls-5"
     d="m 4.2636062,25.16 c 2.26,-1.79 4.79,-3.48 6.6299998,-4.65 a 77.6,77.6 0 0 1 7.59,-4.12 8.93,8.93 0 0 1 2.66,-1 2.09,2.09 0 0 1 0.83,0.09 c 0.83,0.36 2.23,2.61 2.23,2.61 v 0 c 0.25,0.36 0.47,0.74 0.73,1.1 0.26,0.36 0.53,0.81 0.78,1.21 0.37,0.6 0.73,1.2 1.09,1.81 0.58,1 1.21,2 1.73,3 0.87,1.68 2.08,4.06 3.12,6.61 a 40.41,40.41 0 0 1 -11,9.83 l -0.58,0.35 -0.58,-0.35 A 40.5,40.5 0 0 1 4.2636062,25.16"
     id="path48"
     inkscape:connector-curvature="0"
     style="fill:#1cb4ab;fill-rule:evenodd" />
  <path
     class="cls-6"
     d="m 13.003606,1.48 c 0.21,0.22 0.4,0.45 0.58,0.67 0.4,0.47 0.79,1 1.16,1.48 a 16.6,16.6 0 0 1 1.26,1.76 c 0.53,1 1.65,2.41 2,3.3 a 1.71,1.71 0 0 1 0.12,0.86 1.15,1.15 0 0 1 -0.41,0.61 c -0.44,0.35 -0.65,0.47 -1,0.73 -1.62,1.19 -3.17,2.46 -4.74,3.71 -1.76,1.4 -3.5099998,3 -5.1299998,4.61 -1.11,1.08 -2.36,2.38 -3.53,3.75 a 40.29,40.29 0 0 1 -3.31,-16.54 V 5.73 l 0.61,-0.3 A 45.59,45.59 0 0 1 13.003606,1.48"
     id="path50"
     inkscape:connector-curvature="0"
     style="fill:#f2a91d;fill-rule:evenodd" />
  <path
     class="cls-7"
     d="m 48.333606,11.15 h 8.54 c 4,0 6.7,2.93 6.7,7.07 0,4.14 -2.7,7.13 -6.7,7.13 h -3.51 v 6.36 h -5 z m 7.51,9.89 a 2.5,2.5 0 0 0 2.61,-2.82 c 0,-1.64 -0.86,-2.76 -2.53,-2.76 h -2.56 v 5.58 z"
     id="path52"
     style="fill:#000000"
     inkscape:connector-curvature="0" />
  <path
     class="cls-7"
     d="m 65.843606,16.69 h 4.71 v 3.38 a 5.06,5.06 0 0 1 4.65,-3.63 3.36,3.36 0 0 1 0.57,0 v 4.82 a 5.22,5.22 0 0 0 -1,-0.08 c -2.72,0 -4,1.73 -4,4.4 v 5.67 h -4.93 z"
     id="path54"
     style="fill:#000000"
     inkscape:connector-curvature="0" />
  <path
     class="cls-7"
     d="m 85.723606,16.35 c 4.62,0 8.31,3.09 8.31,7.69 0,4.6 -3.69,7.6 -8.29,7.6 -4.6,0 -8.28,-3 -8.28,-7.6 0,-4.6 3.69,-7.69 8.26,-7.69 m 0,11.2 a 3.3,3.3 0 0 0 3.32,-3.51 3.33,3.33 0 1 0 -6.63,0 3.3,3.3 0 0 0 3.31,3.51"
     id="path56"
     style="fill:#000000"
     inkscape:connector-curvature="0" />
  <path
     class="cls-7"
     d="m 154.07361,22.2 h 0.42 v -0.26 c 0,-1.22 -1,-1.62 -2.07,-1.62 a 7.72,7.72 0 0 0 -4,1.39 l -1.7,-3.46 a 11.29,11.29 0 0 1 6.18,-1.9 c 4,0 6.53,2.24 6.53,6 v 9 h -4.48 v -1.84 a 5.38,5.38 0 0 1 -4.34,2.13 4.47,4.47 0 0 1 -4.77,-4.45 c 0,-3.92 4.65,-5 8.26,-5 m -2,5.78 a 2.67,2.67 0 0 0 2.5,-2.58 v -0.4 h -0.46 c -1.5,0 -3.43,0.4 -3.43,1.73 a 1.25,1.25 0 0 0 1.39,1.25"
     id="path58"
     style="fill:#000000"
     inkscape:connector-curvature="0" />
  <polygon
     class="cls-8"
     points="181.67,10.27 180.36,10.27 174.5,19.22 175.15,20.24 181.2,11 "
     id="polygon60"
     style="fill:#f06622"
     transform="translate(0.0036062,0.88)" />
  <polygon
     class="cls-9"
     points="178.85,10.27 173.75,18.06 174.32,18.95 180,10.27 "
     id="polygon62"
     style="fill:#f2a91d"
     transform="translate(0.0036062,0.88)" />
  <polygon
     class="cls-10"
     points="177.38,10.27 173.01,16.93 173.58,17.81 178.52,10.27 "
     id="polygon64"
     style="fill:#1cb4ab"
     transform="translate(0.0036062,0.88)" />
  <polygon
     class="cls-11"
     points="175.68,10.27 173.5,13.6 172.17,15.63 172.83,16.65 177.01,10.27 "
     id="polygon66"
     style="fill:#79b5e2"
     transform="translate(0.0036062,0.88)" />
  <polygon
     class="cls-12"
     points="174.5,19.22 175.15,20.24 176.57,18.06 175.91,17.05 "
     id="polygon68"
     style="fill:#cd4f27"
     transform="translate(0.0036062,0.88)" />
  <polygon
     class="cls-13"
     points="174.32,18.95 175.74,16.78 175.16,15.89 173.75,18.06 "
     id="polygon70"
     style="fill:#c6862b"
     transform="translate(0.0036062,0.88)" />
  <polygon
     class="cls-14"
     points="173.58,17.81 175,15.64 174.43,14.76 173.01,16.93 "
     id="polygon72"
     style="fill:#009f90"
     transform="translate(0.0036062,0.88)" />
  <polygon
     class="cls-15"
     points="172.17,15.63 172.83,16.65 174.25,14.47 173.59,13.45 172.82,14.63 "
     id="polygon74"
     style="fill:#488ebe"
     transform="translate(0.0036062,0.88)" />
  <polygon
     class="cls-7"
     points="168.72,10.29 162.51,10.29 169.05,20.4 162.24,30.83 168.31,30.83 172.06,25.05 175.79,30.83 182,30.83 175.17,20.26 172.16,15.62 "
     id="polygon76"
     style="fill:#000000"
     transform="translate(0.0036062,0.88)" />
  <rect
     class="cls-7"
     x="112.62361"
     y="16.690001"
     width="4.9099998"
     height="14.61"
     id="rect78"
     style="fill:#000000" />
  <rect
     class="cls-7"
     x="112.68361"
     y="11.02"
     width="4.8000002"
     height="3.8299999"
     id="rect80"
     style="fill:#000000" />
  <path
     class="cls-7"
     d="m 120.94361,16.88 h 4.92 v 1.92 a 5.15,5.15 0 0 1 4.14,-2.27 4.3,4.3 0 0 1 4,2.28 5.87,5.87 0 0 1 4.68,-2.28 c 3,0 4.79,1.87 4.79,5.13 v 9.8 h -4.92 v -8.22 c 0,-1.53 -0.75,-2.33 -1.91,-2.33 -1.16,0 -2,0.8 -2,2.33 v 8.22 h -4.92 v -8.22 c 0,-1.53 -0.75,-2.33 -1.92,-2.33 -1.17,0 -2,0.8 -2,2.33 v 8.22 h -4.92 z"
     id="path82"
     style="fill:#000000"
     inkscape:connector-curvature="0" />
  <polygon
     class="cls-7"
     points="102.21,19 100.06,15.82 94.53,15.82 99.44,23.07 94.45,30.41 99.85,30.41 102.14,27.06 104.41,30.41 109.91,30.41 104.91,23 109.8,15.82 104.38,15.82 "
     id="polygon84"
     style="fill:#000000"
     transform="translate(0.0036062,0.88)" />
</svg>
