<?xml version="1.0" encoding="UTF-8" standalone="no"?>
<svg
   xmlns:dc="http://purl.org/dc/elements/1.1/"
   xmlns:cc="http://creativecommons.org/ns#"
   xmlns:rdf="http://www.w3.org/1999/02/22-rdf-syntax-ns#"
   xmlns:svg="http://www.w3.org/2000/svg"
   xmlns="http://www.w3.org/2000/svg"
   xmlns:sodipodi="http://sodipodi.sourceforge.net/DTD/sodipodi-0.dtd"
   xmlns:inkscape="http://www.inkscape.org/namespaces/inkscape"
   id="Layer_1"
   data-name="Layer 1"
   viewBox="0 0 20 20"
   version="1.1"
   sodipodi:docname="icon-dash-on.svg"
   inkscape:version="0.92.4 (unknown)">
  <metadata
     id="metadata65">
    <rdf:RDF>
      <cc:Work
         rdf:about="">
        <dc:format>image/svg+xml</dc:format>
        <dc:type
           rdf:resource="http://purl.org/dc/dcmitype/StillImage" />
        <dc:title>icon-accounts-on</dc:title>
      </cc:Work>
    </rdf:RDF>
  </metadata>
  <sodipodi:namedview
     pagecolor="#ffffff"
     bordercolor="#666666"
     borderopacity="1"
     objecttolerance="10"
     gridtolerance="10"
     guidetolerance="10"
     inkscape:pageopacity="0"
     inkscape:pageshadow="2"
     inkscape:window-width="1920"
     inkscape:window-height="1017"
     id="namedview63"
     showgrid="false"
     inkscape:zoom="16.68772"
     inkscape:cx="-15.465588"
     inkscape:cy="5.6157826"
     inkscape:window-x="0"
     inkscape:window-y="30"
     inkscape:window-maximized="1"
     inkscape:current-layer="Layer_1" />
  <defs
     id="defs28">
    <style
       id="style2">.cls-1,.cls-2,.cls-3{fill:#f06623;}.cls-2{clip-path:url(#clip-path);}.cls-3{clip-path:url(#clip-path-2);}.cls-4,.cls-5,.cls-6{fill:gray;}.cls-5{clip-path:url(#clip-path-3);}.cls-6{clip-path:url(#clip-path-4);}.cls-7{clip-path:url(#clip-path-5);}.cls-8{clip-path:url(#clip-path-6);}.cls-9{clip-path:url(#clip-path-7);}.cls-10{clip-path:url(#clip-path-8);}</style>
    <clipPath
       id="clip-path">
      <path
         class="cls-1"
         d="M11.77,27.66a1.38,1.38,0,0,1-1,.38,1.42,1.42,0,0,1-1-.38,1.18,1.18,0,0,1-.4-.91,1.24,1.24,0,0,1,.4-.91,1.42,1.42,0,0,1,1-.38,1.38,1.38,0,0,1,1,.38,1.2,1.2,0,0,1,.4.91A1.18,1.18,0,0,1,11.77,27.66Z"
         id="path4" />
    </clipPath>
    <clipPath
       id="clip-path-2">
      <path
         class="cls-2"
         d="M11.87,36l-1.11.42a3,3,0,0,1-1,.14,2,2,0,0,1-1.31-.41,1.32,1.32,0,0,1-.46-1,4.19,4.19,0,0,1,0-.5A5,5,0,0,1,8.18,34l.58-2c.05-.2.09-.38.13-.56a2.8,2.8,0,0,0,0-.48.8.8,0,0,0-.16-.55,1,1,0,0,0-.62-.15,1.47,1.47,0,0,0-.46.07l-.41.13.16-.63c.38-.15.74-.28,1.09-.39a2.93,2.93,0,0,1,1-.17,1.88,1.88,0,0,1,1.29.4,1.35,1.35,0,0,1,.45,1c0,.09,0,.25,0,.47a2.84,2.84,0,0,1-.12.62l-.57,2c0,.17-.09.35-.13.56a2.79,2.79,0,0,0-.06.48.64.64,0,0,0,.19.55,1,1,0,0,0,.63.15,1.73,1.73,0,0,0,.47-.07,2.47,2.47,0,0,0,.39-.13Z"
         clip-path="url(#clip-path)"
         id="path7" />
    </clipPath>
    <clipPath
       id="clip-path-3">
      <path
         class="cls-4"
         d="M33.77,27.66a1.38,1.38,0,0,1-1,.38,1.42,1.42,0,0,1-1-.38,1.18,1.18,0,0,1-.4-.91,1.24,1.24,0,0,1,.4-.91,1.42,1.42,0,0,1,1-.38,1.38,1.38,0,0,1,1,.38,1.2,1.2,0,0,1,.4.91A1.18,1.18,0,0,1,33.77,27.66Z"
         id="path10" />
    </clipPath>
    <clipPath
       id="clip-path-4">
      <path
         class="cls-5"
         d="M33.87,36l-1.11.42a3,3,0,0,1-1,.14,2,2,0,0,1-1.31-.41,1.32,1.32,0,0,1-.46-1,4.19,4.19,0,0,1,0-.5,5,5,0,0,1,.12-.58l.58-2c0-.2.09-.38.13-.56a2.8,2.8,0,0,0,.05-.48.8.8,0,0,0-.16-.55,1,1,0,0,0-.62-.15,1.47,1.47,0,0,0-.46.07l-.41.13.16-.63c.38-.15.74-.28,1.09-.39a2.93,2.93,0,0,1,1-.17,1.88,1.88,0,0,1,1.29.4,1.35,1.35,0,0,1,.45,1c0,.09,0,.25,0,.47a2.84,2.84,0,0,1-.12.62l-.57,2c0,.17-.09.35-.13.56a2.79,2.79,0,0,0-.06.48.64.64,0,0,0,.19.55,1,1,0,0,0,.63.15,1.73,1.73,0,0,0,.47-.07,2.47,2.47,0,0,0,.39-.13Z"
         clip-path="url(#clip-path-3)"
         id="path13" />
    </clipPath>
    <clipPath
       id="clip-path-5">
      <path
         class="cls-3"
         d="M10,22a9,9,0,1,0,9,9A9,9,0,0,0,10,22Z"
         clip-path="url(#clip-path-2)"
         id="path16" />
    </clipPath>
    <clipPath
       id="clip-path-6">
      <rect
         class="cls-1"
         x="-1320.65"
         y="-659.65"
         width="1387.68"
         height="780.19"
         id="rect19" />
    </clipPath>
    <clipPath
       id="clip-path-7">
      <path
         class="cls-6"
         d="M32,22a9,9,0,1,0,9,9A9,9,0,0,0,32,22Z"
         clip-path="url(#clip-path-4)"
         id="path22" />
    </clipPath>
    <clipPath
       id="clip-path-8">
      <rect
         class="cls-4"
         x="-1298.65"
         y="-659.65"
         width="1387.68"
         height="780.19"
         id="rect25" />
    </clipPath>
  </defs>
  <title
     id="title30">icon-accounts-on</title>
  <path
     class="cls-1"
     d="M 10.056278,9.4090665 9.9181941,9.2684944 a 0.01960801,0.01960801 0 0 0 -0.02762,0 0.02098884,0.02098884 0 0 0 -0.0058,0.014375 v 0.060205 h -0.138081 a 0.02016034,0.02016034 0 0 0 0,0.040051 h 0.157969 a 0.01960801,0.01960801 0 0 0 0.01934,-0.019873 v -0.032029 l 0.09058,0.092234 -0.09058,0.091966 V 9.4836497 A 0.01988417,0.01988417 0 0 0 9.9043601,9.463496 H 9.6872891 V 9.403291 a 0.02016034,0.02016034 0 0 0 -0.01987,-0.020154 0.0187795,0.0187795 0 0 0 -0.01381,0.0061 l -0.138084,0.1405686 a 0.02043651,0.02043651 0 0 0 0,0.027615 l 0.138085,0.1405685 a 0.01960801,0.01960801 0 0 0 0.01381,0.00585 0.01850332,0.01850332 0 0 0 0.008,-7.047e-4 0.02016034,0.02016034 0 0 0 0.01216,-0.018496 v -0.060205 h 0.138084 a 0.02016034,0.02016034 0 0 0 0,-0.040039 h -0.158247 a 0.01960801,0.01960801 0 0 0 -0.01962,0.019873 v 0.032029 l -0.09058,-0.092234 0.09058,-0.091966 v 0.031748 a 0.01988417,0.01988417 0 0 0 0.01962,0.020154 h 0.217069 v 0.060205 a 0.02016034,0.02016034 0 0 0 0.01987,0.020154 0.0187795,0.0187795 0 0 0 0.01381,-0.0061 L 10.056246,9.4376962 a 0.02043651,0.02043651 0 0 0 0,-0.028432 z"
     id="path32"
     style="fill:#f06623;stroke:none;stroke-width:0.00828507;stroke-miterlimit:4;stroke-dasharray:none;fill-opacity:1"
     inkscape:connector-curvature="0" />
  <path
     inkscape:connector-curvature="0"
     d="M 8.0515613,7.0061654 H 2.1599549 c -0.7580265,0 -1.3746602,-0.616634 -1.3746602,-1.3748042 V 2.0963974 c 0,-0.7580265 0.6166337,-1.37466018 1.3746602,-1.37466018 h 5.8916064 c 0.7581702,0 1.3748041,0.61663368 1.3748041,1.37466018 v 3.5349638 c 0,0.7581702 -0.6166339,1.3748042 -1.3748041,1.3748042 z M 2.1599549,1.9000585 c -0.10831,0 -0.1963389,0.088029 -0.1963389,0.1963389 v 3.5349638 c 0,0.1084538 0.088029,0.1964829 0.1963389,0.1964829 h 5.8916064 c 0.1084538,0 0.1964828,-0.088029 0.1964828,-0.1964829 V 2.0963974 c 0,-0.10831 -0.088029,-0.1963389 -0.1964828,-0.1963389 z m 0,0"
     id="path849"
     style="stroke-width:0.03682254;fill:#f06623;fill-opacity:1" />
  <path
     inkscape:connector-curvature="0"
     d="M 8.0515613,19.574878 H 2.1599549 c -0.7580265,0 -1.3746602,-0.616634 -1.3746602,-1.37466 V 9.9519686 c 0,-0.7581706 0.6166337,-1.3748042 1.3746602,-1.3748042 h 5.8916064 c 0.7581702,0 1.3748041,0.6166336 1.3748041,1.3748042 v 8.2482494 c 0,0.758026 -0.6166339,1.37466 -1.3748041,1.37466 z M 2.1599549,9.7554857 c -0.10831,0 -0.1963389,0.088029 -0.1963389,0.1964829 v 8.2482494 c 0,0.108309 0.088029,0.196338 0.1963389,0.196338 h 5.8916064 c 0.1084538,0 0.1964828,-0.08803 0.1964828,-0.196338 V 9.9519686 c 0,-0.1084538 -0.088029,-0.1964829 -0.1964828,-0.1964829 z m 0,0"
     id="path851"
     style="stroke-width:0.03682254;fill:#f06623;fill-opacity:1" />
  <path
     inkscape:connector-curvature="0"
     d="m 18.263775,19.574878 h -5.891606 c -0.758171,0 -1.374805,-0.616634 -1.374805,-1.37466 v -3.534964 c 0,-0.758171 0.616634,-1.374804 1.374805,-1.374804 h 5.891606 c 0.758027,0 1.37466,0.616633 1.37466,1.374804 v 3.534964 c 0,0.758026 -0.616633,1.37466 -1.37466,1.37466 z m -5.891606,-5.106107 c -0.108454,0 -0.196483,0.08803 -0.196483,0.196483 v 3.534964 c 0,0.108309 0.08803,0.196338 0.196483,0.196338 h 5.891606 c 0.10831,0 0.196339,-0.08803 0.196339,-0.196338 v -3.534964 c 0,-0.108454 -0.08803,-0.196483 -0.196339,-0.196483 z m 0,0"
     id="path853"
     style="stroke-width:0.03682254;fill:#f06623;fill-opacity:1" />
  <path
     inkscape:connector-curvature="0"
     d="m 18.263775,11.71945 h -5.891606 c -0.758171,0 -1.374805,-0.616633 -1.374805,-1.374804 V 2.0963974 c 0,-0.7580265 0.616634,-1.37466018 1.374805,-1.37466018 h 5.891606 c 0.758027,0 1.37466,0.61663368 1.37466,1.37466018 v 8.2482486 c 0,0.758171 -0.616633,1.374804 -1.37466,1.374804 z M 12.372169,1.9000585 c -0.108454,0 -0.196483,0.088029 -0.196483,0.1963389 v 8.2482486 c 0,0.108454 0.08803,0.196483 0.196483,0.196483 h 5.891606 c 0.10831,0 0.196339,-0.08803 0.196339,-0.196483 V 2.0963974 c 0,-0.10831 -0.08803,-0.1963389 -0.196339,-0.1963389 z m 0,0"
     id="path855"
     style="stroke-width:0.03682254;fill:#f06623;fill-opacity:1" />
</svg>
