<?xml version="1.0" encoding="UTF-8" standalone="no"?>
<svg
   xmlns:dc="http://purl.org/dc/elements/1.1/"
   xmlns:cc="http://creativecommons.org/ns#"
   xmlns:rdf="http://www.w3.org/1999/02/22-rdf-syntax-ns#"
   xmlns:svg="http://www.w3.org/2000/svg"
   xmlns="http://www.w3.org/2000/svg"
   xmlns:sodipodi="http://sodipodi.sourceforge.net/DTD/sodipodi-0.dtd"
   xmlns:inkscape="http://www.inkscape.org/namespaces/inkscape"
   id="Layer_1"
   data-name="Layer 1"
   viewBox="0 0 20 20"
   version="1.1"
   sodipodi:docname="icon-gen-on.svg"
   inkscape:version="0.92.3 (2405546, 2018-03-11)">
  <metadata
     id="metadata65">
    <rdf:RDF>
      <cc:Work
         rdf:about="">
        <dc:format>image/svg+xml</dc:format>
        <dc:type
           rdf:resource="http://purl.org/dc/dcmitype/StillImage" />
        <dc:title>icon-accounts-on</dc:title>
      </cc:Work>
    </rdf:RDF>
  </metadata>
  <sodipodi:namedview
     pagecolor="#ffffff"
     bordercolor="#666666"
     borderopacity="1"
     objecttolerance="10"
     gridtolerance="10"
     guidetolerance="10"
     inkscape:pageopacity="0"
     inkscape:pageshadow="2"
     inkscape:window-width="1366"
     inkscape:window-height="705"
     id="namedview63"
     showgrid="false"
     inkscape:zoom="11.8"
     inkscape:cx="22.547931"
     inkscape:cy="8.2423555"
     inkscape:window-x="0"
     inkscape:window-y="30"
     inkscape:window-maximized="1"
     inkscape:current-layer="Layer_1" />
  <defs
     id="defs28">
    <marker
       inkscape:stockid="Arrow1Lstart"
       orient="auto"
       refY="0.0"
       refX="0.0"
       id="marker1486"
       style="overflow:visible"
       inkscape:isstock="true">
      <path
         id="path1484"
         d="M 0.0,0.0 L 5.0,-5.0 L -12.5,0.0 L 5.0,5.0 L 0.0,0.0 z "
         style="fill-rule:evenodd;stroke:none;stroke-width:1pt;stroke-opacity:1;fill:#f06623;fill-opacity:1"
         transform="scale(0.8) translate(12.5,0)" />
    </marker>
    <marker
       inkscape:stockid="Arrow1Lstart"
       orient="auto"
       refY="0.0"
       refX="0.0"
       id="marker1458"
       style="overflow:visible"
       inkscape:isstock="true">
      <path
         id="path1456"
         d="M 0.0,0.0 L 5.0,-5.0 L -12.5,0.0 L 5.0,5.0 L 0.0,0.0 z "
         style="fill-rule:evenodd;stroke:none;stroke-width:1pt;stroke-opacity:1;fill:#4398d1;fill-opacity:1"
         transform="scale(0.8) translate(12.5,0)" />
    </marker>
    <marker
       inkscape:stockid="Arrow1Lstart"
       orient="auto"
       refY="0.0"
       refX="0.0"
       id="marker1436"
       style="overflow:visible"
       inkscape:isstock="true">
      <path
         id="path1434"
         d="M 0.0,0.0 L 5.0,-5.0 L -12.5,0.0 L 5.0,5.0 L 0.0,0.0 z "
         style="fill-rule:evenodd;stroke:none;stroke-width:1pt;stroke-opacity:1;fill:#4398d1;fill-opacity:1"
         transform="scale(0.8) translate(12.5,0)" />
    </marker>
    <marker
       inkscape:stockid="Arrow1Lstart"
       orient="auto"
       refY="0.0"
       refX="0.0"
       id="Arrow1Lstart"
       style="overflow:visible"
       inkscape:isstock="true">
      <path
         id="path1152"
         d="M 0.0,0.0 L 5.0,-5.0 L -12.5,0.0 L 5.0,5.0 L 0.0,0.0 z "
         style="fill-rule:evenodd;stroke:none;stroke-width:1pt;stroke-opacity:1;fill:#4398d1;fill-opacity:1"
         transform="scale(0.8) translate(12.5,0)" />
    </marker>
    <style
       id="style2">.cls-1,.cls-2,.cls-3{fill:#f06623;}.cls-2{clip-path:url(#clip-path);}.cls-3{clip-path:url(#clip-path-2);}.cls-4,.cls-5,.cls-6{fill:gray;}.cls-5{clip-path:url(#clip-path-3);}.cls-6{clip-path:url(#clip-path-4);}.cls-7{clip-path:url(#clip-path-5);}.cls-8{clip-path:url(#clip-path-6);}.cls-9{clip-path:url(#clip-path-7);}.cls-10{clip-path:url(#clip-path-8);}</style>
    <clipPath
       id="clip-path">
      <path
         class="cls-1"
         d="M11.77,27.66a1.38,1.38,0,0,1-1,.38,1.42,1.42,0,0,1-1-.38,1.18,1.18,0,0,1-.4-.91,1.24,1.24,0,0,1,.4-.91,1.42,1.42,0,0,1,1-.38,1.38,1.38,0,0,1,1,.38,1.2,1.2,0,0,1,.4.91A1.18,1.18,0,0,1,11.77,27.66Z"
         id="path4" />
    </clipPath>
    <clipPath
       id="clip-path-2">
      <path
         class="cls-2"
         d="M11.87,36l-1.11.42a3,3,0,0,1-1,.14,2,2,0,0,1-1.31-.41,1.32,1.32,0,0,1-.46-1,4.19,4.19,0,0,1,0-.5A5,5,0,0,1,8.18,34l.58-2c.05-.2.09-.38.13-.56a2.8,2.8,0,0,0,0-.48.8.8,0,0,0-.16-.55,1,1,0,0,0-.62-.15,1.47,1.47,0,0,0-.46.07l-.41.13.16-.63c.38-.15.74-.28,1.09-.39a2.93,2.93,0,0,1,1-.17,1.88,1.88,0,0,1,1.29.4,1.35,1.35,0,0,1,.45,1c0,.09,0,.25,0,.47a2.84,2.84,0,0,1-.12.62l-.57,2c0,.17-.09.35-.13.56a2.79,2.79,0,0,0-.06.48.64.64,0,0,0,.19.55,1,1,0,0,0,.63.15,1.73,1.73,0,0,0,.47-.07,2.47,2.47,0,0,0,.39-.13Z"
         clip-path="url(#clip-path)"
         id="path7" />
    </clipPath>
    <clipPath
       id="clip-path-3">
      <path
         class="cls-4"
         d="M33.77,27.66a1.38,1.38,0,0,1-1,.38,1.42,1.42,0,0,1-1-.38,1.18,1.18,0,0,1-.4-.91,1.24,1.24,0,0,1,.4-.91,1.42,1.42,0,0,1,1-.38,1.38,1.38,0,0,1,1,.38,1.2,1.2,0,0,1,.4.91A1.18,1.18,0,0,1,33.77,27.66Z"
         id="path10" />
    </clipPath>
    <clipPath
       id="clip-path-4">
      <path
         class="cls-5"
         d="M33.87,36l-1.11.42a3,3,0,0,1-1,.14,2,2,0,0,1-1.31-.41,1.32,1.32,0,0,1-.46-1,4.19,4.19,0,0,1,0-.5,5,5,0,0,1,.12-.58l.58-2c0-.2.09-.38.13-.56a2.8,2.8,0,0,0,.05-.48.8.8,0,0,0-.16-.55,1,1,0,0,0-.62-.15,1.47,1.47,0,0,0-.46.07l-.41.13.16-.63c.38-.15.74-.28,1.09-.39a2.93,2.93,0,0,1,1-.17,1.88,1.88,0,0,1,1.29.4,1.35,1.35,0,0,1,.45,1c0,.09,0,.25,0,.47a2.84,2.84,0,0,1-.12.62l-.57,2c0,.17-.09.35-.13.56a2.79,2.79,0,0,0-.06.48.64.64,0,0,0,.19.55,1,1,0,0,0,.63.15,1.73,1.73,0,0,0,.47-.07,2.47,2.47,0,0,0,.39-.13Z"
         clip-path="url(#clip-path-3)"
         id="path13" />
    </clipPath>
    <clipPath
       id="clip-path-5">
      <path
         class="cls-3"
         d="M10,22a9,9,0,1,0,9,9A9,9,0,0,0,10,22Z"
         clip-path="url(#clip-path-2)"
         id="path16" />
    </clipPath>
    <clipPath
       id="clip-path-6">
      <rect
         class="cls-1"
         x="-1320.65"
         y="-659.65"
         width="1387.68"
         height="780.19"
         id="rect19" />
    </clipPath>
    <clipPath
       id="clip-path-7">
      <path
         class="cls-6"
         d="M32,22a9,9,0,1,0,9,9A9,9,0,0,0,32,22Z"
         clip-path="url(#clip-path-4)"
         id="path22" />
    </clipPath>
    <clipPath
       id="clip-path-8">
      <rect
         class="cls-4"
         x="-1298.65"
         y="-659.65"
         width="1387.68"
         height="780.19"
         id="rect25" />
    </clipPath>
    <style
       id="style2-5">.cls-1,.cls-2,.cls-3{fill:#f06623;}.cls-2{clip-path:url(#clip-path);}.cls-3{clip-path:url(#clip-path-2);}.cls-4,.cls-5,.cls-6{fill:gray;}.cls-5{clip-path:url(#clip-path-3);}.cls-6{clip-path:url(#clip-path-4);}.cls-7{clip-path:url(#clip-path-5);}.cls-8{clip-path:url(#clip-path-6);}.cls-9{clip-path:url(#clip-path-7);}.cls-10{clip-path:url(#clip-path-8);}</style>
    <clipPath
       id="clip-path-62">
      <path
         id="path4-9"
         d="M11.77,27.66a1.38,1.38,0,0,1-1,.38,1.42,1.42,0,0,1-1-.38,1.18,1.18,0,0,1-.4-.91,1.24,1.24,0,0,1,.4-.91,1.42,1.42,0,0,1,1-.38,1.38,1.38,0,0,1,1,.38,1.2,1.2,0,0,1,.4.91A1.18,1.18,0,0,1,11.77,27.66Z"
         class="cls-1" />
    </clipPath>
    <clipPath
       id="clip-path-2-1">
      <path
         id="path7-2"
         clip-path="url(#clip-path)"
         d="M11.87,36l-1.11.42a3,3,0,0,1-1,.14,2,2,0,0,1-1.31-.41,1.32,1.32,0,0,1-.46-1,4.19,4.19,0,0,1,0-.5A5,5,0,0,1,8.18,34l.58-2c.05-.2.09-.38.13-.56a2.8,2.8,0,0,0,0-.48.8.8,0,0,0-.16-.55,1,1,0,0,0-.62-.15,1.47,1.47,0,0,0-.46.07l-.41.13.16-.63c.38-.15.74-.28,1.09-.39a2.93,2.93,0,0,1,1-.17,1.88,1.88,0,0,1,1.29.4,1.35,1.35,0,0,1,.45,1c0,.09,0,.25,0,.47a2.84,2.84,0,0,1-.12.62l-.57,2c0,.17-.09.35-.13.56a2.79,2.79,0,0,0-.06.48.64.64,0,0,0,.19.55,1,1,0,0,0,.63.15,1.73,1.73,0,0,0,.47-.07,2.47,2.47,0,0,0,.39-.13Z"
         class="cls-2" />
    </clipPath>
    <clipPath
       id="clip-path-3-7">
      <path
         id="path10-0"
         d="M33.77,27.66a1.38,1.38,0,0,1-1,.38,1.42,1.42,0,0,1-1-.38,1.18,1.18,0,0,1-.4-.91,1.24,1.24,0,0,1,.4-.91,1.42,1.42,0,0,1,1-.38,1.38,1.38,0,0,1,1,.38,1.2,1.2,0,0,1,.4.91A1.18,1.18,0,0,1,33.77,27.66Z"
         class="cls-4" />
    </clipPath>
    <clipPath
       id="clip-path-4-9">
      <path
         id="path13-3"
         clip-path="url(#clip-path-3)"
         d="M33.87,36l-1.11.42a3,3,0,0,1-1,.14,2,2,0,0,1-1.31-.41,1.32,1.32,0,0,1-.46-1,4.19,4.19,0,0,1,0-.5,5,5,0,0,1,.12-.58l.58-2c0-.2.09-.38.13-.56a2.8,2.8,0,0,0,.05-.48.8.8,0,0,0-.16-.55,1,1,0,0,0-.62-.15,1.47,1.47,0,0,0-.46.07l-.41.13.16-.63c.38-.15.74-.28,1.09-.39a2.93,2.93,0,0,1,1-.17,1.88,1.88,0,0,1,1.29.4,1.35,1.35,0,0,1,.45,1c0,.09,0,.25,0,.47a2.84,2.84,0,0,1-.12.62l-.57,2c0,.17-.09.35-.13.56a2.79,2.79,0,0,0-.06.48.64.64,0,0,0,.19.55,1,1,0,0,0,.63.15,1.73,1.73,0,0,0,.47-.07,2.47,2.47,0,0,0,.39-.13Z"
         class="cls-5" />
    </clipPath>
    <clipPath
       id="clip-path-5-6">
      <path
         id="path16-0"
         clip-path="url(#clip-path-2)"
         d="M10,22a9,9,0,1,0,9,9A9,9,0,0,0,10,22Z"
         class="cls-3" />
    </clipPath>
    <clipPath
       id="clip-path-6-6">
      <rect
         id="rect19-2"
         height="780.19"
         width="1387.68"
         y="-659.65"
         x="-1320.65"
         class="cls-1" />
    </clipPath>
    <clipPath
       id="clip-path-7-6">
      <path
         id="path22-1"
         clip-path="url(#clip-path-4)"
         d="M32,22a9,9,0,1,0,9,9A9,9,0,0,0,32,22Z"
         class="cls-6" />
    </clipPath>
    <clipPath
       id="clip-path-8-8">
      <rect
         id="rect25-7"
         height="780.19"
         width="1387.68"
         y="-659.65"
         x="-1298.65"
         class="cls-4" />
    </clipPath>
  </defs>
  <title
     id="title30">icon-accounts-on</title>
  <g
     id="g1544"
     transform="matrix(1.1172481,0,0,1.1172481,-24.939422,-0.95184847)">
    <path
       id="path943"
       d="M 38.927209,12.431971 39.944138,5.9387633 C 40.04988,5.2798504 39.601536,4.6598672 38.94259,4.5538195 v 0 L 25.220521,2.3513692 C 24.561609,2.2456283 23.94166,2.6939717 23.835918,3.3528835 l -0.487612,3.036629 v 6.0046805 z"
       style="fill:#b63f05;fill-opacity:1;stroke-width:0.03388073"
       inkscape:connector-curvature="0" />
    <path
       id="path947"
       d="m 23.821112,6.0873976 h 13.897605 c 0.667382,0 1.208492,0.5411093 1.208492,1.2084917 v 7.8551797 c 0,0.667383 -0.54111,1.208492 -1.208492,1.208492 H 23.821112 C 23.153729,16.359527 22.61262,15.818452 22.61262,15.151069 V 7.2958893 c 0,-0.6673824 0.541109,-1.2084917 1.208492,-1.2084917 z"
       style="fill:#f06623;fill-opacity:1;stroke-width:0.034;stroke-miterlimit:4;stroke-dasharray:none;marker-end:url(#marker1486)"
       inkscape:connector-curvature="0" />
  </g>
  <g
     id="g981"
     transform="translate(46.896983,-282.70757)">
</g>
  <g
     id="g983"
     transform="translate(46.896983,-282.70757)">
</g>
  <g
     id="g985"
     transform="translate(46.896983,-282.70757)">
</g>
  <g
     id="g987"
     transform="translate(46.896983,-282.70757)">
</g>
  <g
     id="g989"
     transform="translate(46.896983,-282.70757)">
</g>
  <g
     id="g991"
     transform="translate(46.896983,-282.70757)">
</g>
  <g
     id="g993"
     transform="translate(46.896983,-282.70757)">
</g>
  <g
     id="g995"
     transform="translate(46.896983,-282.70757)">
</g>
  <g
     id="g997"
     transform="translate(46.896983,-282.70757)">
</g>
  <g
     id="g999"
     transform="translate(46.896983,-282.70757)">
</g>
  <g
     id="g1001"
     transform="translate(46.896983,-282.70757)">
</g>
  <g
     id="g1003"
     transform="translate(46.896983,-282.70757)">
</g>
  <g
     id="g1005"
     transform="translate(46.896983,-282.70757)">
</g>
  <g
     id="g1007"
     transform="translate(46.896983,-282.70757)">
</g>
  <g
     id="g1009"
     transform="translate(46.896983,-282.70757)">
</g>
</svg>
