<svg xmlns="http://www.w3.org/2000/svg" viewBox="0 0 100 100"><title>Artboard 1</title><path d="M100,50A49.95,49.95,0,0,0,40.46.93c1.2-.09,2.41-.14,3.63-.14A45.77,45.77,0,0,1,78,77.22h0a6.06,6.06,0,0,0,0,7.85c2.41,2.65,6.07,1.43,7.92-.24l.22-.23A49.92,49.92,0,0,0,100,50Z" style="fill:#f06623"/><path d="M0,50A49.95,49.95,0,0,0,59.54,99.07c-1.2.09-2.41.14-3.63.14A45.77,45.77,0,0,1,22,22.78h0a6.06,6.06,0,0,0,0-7.85c-2.41-2.65-6.07-1.43-7.92.24l-.22.23A49.92,49.92,0,0,0,0,50Z" style="fill:#f06623"/></svg>