<svg id="Layer_1" data-name="Layer 1" xmlns="http://www.w3.org/2000/svg" viewBox="0 0 20 20"><defs><style>.cls-1{fill:gray;}</style></defs><title>icon-info-off</title><path class="cls-1" d="M10,1a9,9,0,1,0,9,9A9,9,0,0,0,10,1Zm1.87,14-1.11.42a3,3,0,0,1-1,.14,2,2,0,0,1-1.31-.41,1.32,1.32,0,0,1-.46-1,4.19,4.19,0,0,1,0-.5A5,5,0,0,1,8.18,13l.58-2.05c.05-.2.09-.38.13-.56a2.8,2.8,0,0,0,0-.48.8.8,0,0,0-.16-.55,1,1,0,0,0-.62-.15,1.47,1.47,0,0,0-.46.07l-.41.13.16-.63c.38-.15.74-.28,1.09-.39a2.93,2.93,0,0,1,1-.17,1.88,1.88,0,0,1,1.29.4,1.35,1.35,0,0,1,.45,1.05c0,.09,0,.25,0,.47a2.84,2.84,0,0,1-.12.62l-.57,2c0,.17-.09.35-.13.56a2.79,2.79,0,0,0-.06.48.64.64,0,0,0,.19.55,1,1,0,0,0,.63.15,1.73,1.73,0,0,0,.47-.07,2.47,2.47,0,0,0,.39-.13Zm-.1-8.29a1.38,1.38,0,0,1-1,.38,1.42,1.42,0,0,1-1-.38,1.18,1.18,0,0,1-.4-.91,1.24,1.24,0,0,1,.4-.91,1.42,1.42,0,0,1,1-.38,1.38,1.38,0,0,1,1,.38,1.2,1.2,0,0,1,.4.91A1.18,1.18,0,0,1,11.77,6.66Z"/></svg>