<svg id="Layer_1" data-name="Layer 1" xmlns="http://www.w3.org/2000/svg" xmlns:xlink="http://www.w3.org/1999/xlink" viewBox="0 0 14 14"><defs><style>.cls-1,.cls-2,.cls-3{fill:#f06623;}.cls-2{clip-path:url(#clip-path);}.cls-3{clip-path:url(#clip-path-2);}.cls-4,.cls-5,.cls-6{fill:gray;}.cls-5{clip-path:url(#clip-path-3);}.cls-6{clip-path:url(#clip-path-4);}.cls-7{clip-path:url(#clip-path-5);}.cls-8{clip-path:url(#clip-path-6);}.cls-9{clip-path:url(#clip-path-7);}.cls-10{clip-path:url(#clip-path-8);}</style><clipPath id="clip-path"><path class="cls-1" d="M-10.23-15.34a1.38,1.38,0,0,1-1,.38,1.42,1.42,0,0,1-1-.38,1.18,1.18,0,0,1-.4-.91,1.24,1.24,0,0,1,.4-.91,1.42,1.42,0,0,1,1-.38,1.38,1.38,0,0,1,1,.38,1.2,1.2,0,0,1,.4.91A1.18,1.18,0,0,1-10.23-15.34Z"/></clipPath><clipPath id="clip-path-2"><path class="cls-2" d="M-10.13-7l-1.11.42a3,3,0,0,1-1,.14,2,2,0,0,1-1.31-.41,1.32,1.32,0,0,1-.46-1,4.19,4.19,0,0,1,0-.5A5,5,0,0,1-13.82-9l.58-2.05c.05-.2.09-.38.13-.56a2.8,2.8,0,0,0,0-.48.8.8,0,0,0-.16-.55,1,1,0,0,0-.62-.15,1.47,1.47,0,0,0-.46.07l-.41.13.16-.63c.38-.15.74-.28,1.09-.39a2.93,2.93,0,0,1,1-.17,1.88,1.88,0,0,1,1.29.4,1.35,1.35,0,0,1,.45,1.05c0,.09,0,.25,0,.47a2.84,2.84,0,0,1-.12.62l-.57,2c0,.17-.09.35-.13.56a2.79,2.79,0,0,0-.06.48.64.64,0,0,0,.19.55,1,1,0,0,0,.63.15,1.73,1.73,0,0,0,.47-.07A2.47,2.47,0,0,0-10-7.68Z"/></clipPath><clipPath id="clip-path-3"><path class="cls-4" d="M11.77-15.34a1.38,1.38,0,0,1-1,.38,1.42,1.42,0,0,1-1-.38,1.18,1.18,0,0,1-.4-.91,1.24,1.24,0,0,1,.4-.91,1.42,1.42,0,0,1,1-.38,1.38,1.38,0,0,1,1,.38,1.2,1.2,0,0,1,.4.91A1.18,1.18,0,0,1,11.77-15.34Z"/></clipPath><clipPath id="clip-path-4"><path class="cls-5" d="M11.87-7l-1.11.42a3,3,0,0,1-1,.14A2,2,0,0,1,8.49-6.9a1.32,1.32,0,0,1-.46-1,4.19,4.19,0,0,1,0-.5A5,5,0,0,1,8.18-9l.58-2.05c.05-.2.09-.38.13-.56a2.8,2.8,0,0,0,0-.48.8.8,0,0,0-.16-.55,1,1,0,0,0-.62-.15,1.47,1.47,0,0,0-.46.07l-.41.13.16-.63c.38-.15.74-.28,1.09-.39a2.93,2.93,0,0,1,1-.17,1.88,1.88,0,0,1,1.29.4,1.35,1.35,0,0,1,.45,1.05c0,.09,0,.25,0,.47a2.84,2.84,0,0,1-.12.62l-.57,2c0,.17-.09.35-.13.56a2.79,2.79,0,0,0-.06.48.64.64,0,0,0,.19.55,1,1,0,0,0,.63.15,1.73,1.73,0,0,0,.47-.07A2.47,2.47,0,0,0,12-7.68Z"/></clipPath><clipPath id="clip-path-5"><path class="cls-3" d="M-12-21a9,9,0,0,0-9,9,9,9,0,0,0,9,9,9,9,0,0,0,9-9A9,9,0,0,0-12-21Z"/></clipPath><clipPath id="clip-path-6"><rect class="cls-1" x="-1342.65" y="-702.65" width="1387.68" height="780.19"/></clipPath><clipPath id="clip-path-7"><path class="cls-6" d="M10-21a9,9,0,0,0-9,9,9,9,0,0,0,9,9,9,9,0,0,0,9-9A9,9,0,0,0,10-21Z"/></clipPath><clipPath id="clip-path-8"><rect class="cls-4" x="-1320.65" y="-702.65" width="1387.68" height="780.19"/></clipPath></defs><title>icon-transaction-receive</title><path class="cls-1" d="M-10.23-15.34a1.38,1.38,0,0,1-1,.38,1.42,1.42,0,0,1-1-.38,1.18,1.18,0,0,1-.4-.91,1.24,1.24,0,0,1,.4-.91,1.42,1.42,0,0,1,1-.38,1.38,1.38,0,0,1,1,.38,1.2,1.2,0,0,1,.4.91A1.18,1.18,0,0,1-10.23-15.34Z"/><path class="cls-1" d="M-10.13-7l-1.11.42a3,3,0,0,1-1,.14,2,2,0,0,1-1.31-.41,1.32,1.32,0,0,1-.46-1,4.19,4.19,0,0,1,0-.5A5,5,0,0,1-13.82-9l.58-2.05c.05-.2.09-.38.13-.56a2.8,2.8,0,0,0,0-.48.8.8,0,0,0-.16-.55,1,1,0,0,0-.62-.15,1.47,1.47,0,0,0-.46.07l-.41.13.16-.63c.38-.15.74-.28,1.09-.39a2.93,2.93,0,0,1,1-.17,1.88,1.88,0,0,1,1.29.4,1.35,1.35,0,0,1,.45,1.05c0,.09,0,.25,0,.47a2.84,2.84,0,0,1-.12.62l-.57,2c0,.17-.09.35-.13.56a2.79,2.79,0,0,0-.06.48.64.64,0,0,0,.19.55,1,1,0,0,0,.63.15,1.73,1.73,0,0,0,.47-.07A2.47,2.47,0,0,0-10-7.68Z"/><path class="cls-1" d="M-12-21a9,9,0,0,0-9,9,9,9,0,0,0,9,9,9,9,0,0,0,9-9A9,9,0,0,0-12-21Z"/><g class="cls-7"><rect class="cls-1" x="-1342.65" y="-702.65" width="1387.68" height="780.19"/><g class="cls-8"><rect class="cls-1" x="-26.08" y="-26.08" width="28.16" height="28.16"/></g></g><path class="cls-4" d="M11.77-15.34a1.38,1.38,0,0,1-1,.38,1.42,1.42,0,0,1-1-.38,1.18,1.18,0,0,1-.4-.91,1.24,1.24,0,0,1,.4-.91,1.42,1.42,0,0,1,1-.38,1.38,1.38,0,0,1,1,.38,1.2,1.2,0,0,1,.4.91A1.18,1.18,0,0,1,11.77-15.34Z"/><path class="cls-4" d="M11.87-7l-1.11.42a3,3,0,0,1-1,.14A2,2,0,0,1,8.49-6.9a1.32,1.32,0,0,1-.46-1,4.19,4.19,0,0,1,0-.5A5,5,0,0,1,8.18-9l.58-2.05c.05-.2.09-.38.13-.56a2.8,2.8,0,0,0,0-.48.8.8,0,0,0-.16-.55,1,1,0,0,0-.62-.15,1.47,1.47,0,0,0-.46.07l-.41.13.16-.63c.38-.15.74-.28,1.09-.39a2.93,2.93,0,0,1,1-.17,1.88,1.88,0,0,1,1.29.4,1.35,1.35,0,0,1,.45,1.05c0,.09,0,.25,0,.47a2.84,2.84,0,0,1-.12.62l-.57,2c0,.17-.09.35-.13.56a2.79,2.79,0,0,0-.06.48.64.64,0,0,0,.19.55,1,1,0,0,0,.63.15,1.73,1.73,0,0,0,.47-.07A2.47,2.47,0,0,0,12-7.68Z"/><path class="cls-4" d="M10-21a9,9,0,0,0-9,9,9,9,0,0,0,9,9,9,9,0,0,0,9-9A9,9,0,0,0,10-21Z"/><g class="cls-9"><rect class="cls-4" x="-1320.65" y="-702.65" width="1387.68" height="780.19"/><g class="cls-10"><rect class="cls-4" x="-4.08" y="-26.08" width="28.16" height="28.16"/></g></g><path d="M6,.54.23,6.42a.84.84,0,0,0,0,1.16L6,13.46a.8.8,0,0,0,1.16,0,.87.87,0,0,0,.25-.58V10.35h5.75a.84.84,0,0,0,0-1.68H6.57a.83.83,0,0,0-.82.84v1.33L2,7,5.75,3.16V4.49a.84.84,0,0,0,.82.84h5.28a6,6,0,0,1-1.37-1.68H7.38V1.13A.83.83,0,0,0,6.57.29.77.77,0,0,0,6,.54Z"/></svg>