<?xml version="1.0" encoding="UTF-8" standalone="no"?>
<svg
   xmlns:dc="http://purl.org/dc/elements/1.1/"
   xmlns:cc="http://creativecommons.org/ns#"
   xmlns:rdf="http://www.w3.org/1999/02/22-rdf-syntax-ns#"
   xmlns:svg="http://www.w3.org/2000/svg"
   xmlns="http://www.w3.org/2000/svg"
   xmlns:sodipodi="http://sodipodi.sourceforge.net/DTD/sodipodi-0.dtd"
   xmlns:inkscape="http://www.inkscape.org/namespaces/inkscape"
   id="Layer_1"
   data-name="Layer 1"
   viewBox="0 0 20 20"
   version="1.1"
   sodipodi:docname="icon-nodes-on.svg"
   inkscape:version="0.92.4 (unknown)">
  <metadata
     id="metadata51">
    <rdf:RDF>
      <cc:Work
         rdf:about="">
        <dc:format>image/svg+xml</dc:format>
        <dc:type
           rdf:resource="http://purl.org/dc/dcmitype/StillImage" />
      </cc:Work>
    </rdf:RDF>
  </metadata>
  <sodipodi:namedview
     pagecolor="#ffffff"
     bordercolor="#666666"
     borderopacity="1"
     objecttolerance="10"
     gridtolerance="10"
     guidetolerance="10"
     inkscape:pageopacity="0"
     inkscape:pageshadow="2"
     inkscape:window-width="640"
     inkscape:window-height="480"
     id="namedview49"
     showgrid="false"
     inkscape:zoom="11.8"
     inkscape:cx="10"
     inkscape:cy="10"
     inkscape:window-x="0"
     inkscape:window-y="30"
     inkscape:window-maximized="0"
     inkscape:current-layer="Layer_1" />
  <defs
     id="defs22">
    <style
       id="style2">.cls-1,.cls-2,.cls-3{fill:#f06623;}.cls-2{clip-path:url(#clip-path);}.cls-3{clip-path:url(#clip-path-2);}.cls-4,.cls-5,.cls-6{fill:gray;}.cls-5{clip-path:url(#clip-path-3);}.cls-6{clip-path:url(#clip-path-4);}.cls-7{clip-path:url(#clip-path-5);}.cls-8{clip-path:url(#clip-path-6);}</style>
    <clipPath
       id="clip-path">
      <path
         class="cls-1"
         d="M11.77,48.66a1.38,1.38,0,0,1-1,.38,1.42,1.42,0,0,1-1-.38,1.18,1.18,0,0,1-.4-.91,1.24,1.24,0,0,1,.4-.91,1.42,1.42,0,0,1,1-.38,1.38,1.38,0,0,1,1,.38,1.2,1.2,0,0,1,.4.91A1.18,1.18,0,0,1,11.77,48.66Z"
         id="path4" />
    </clipPath>
    <clipPath
       id="clip-path-2">
      <path
         class="cls-2"
         d="M11.87,57l-1.11.42a3,3,0,0,1-1,.14,2,2,0,0,1-1.31-.41,1.32,1.32,0,0,1-.46-1,4.19,4.19,0,0,1,0-.5A5,5,0,0,1,8.18,55l.58-2c.05-.2.09-.38.13-.56a2.8,2.8,0,0,0,0-.48.8.8,0,0,0-.16-.55,1,1,0,0,0-.62-.15,1.47,1.47,0,0,0-.46.07l-.41.13.16-.63c.38-.15.74-.28,1.09-.39a2.93,2.93,0,0,1,1-.17,1.88,1.88,0,0,1,1.29.4,1.35,1.35,0,0,1,.45,1c0,.09,0,.25,0,.47a2.84,2.84,0,0,1-.12.62l-.57,2c0,.17-.09.35-.13.56a2.79,2.79,0,0,0-.06.48.64.64,0,0,0,.19.55,1,1,0,0,0,.63.15,1.73,1.73,0,0,0,.47-.07,2.47,2.47,0,0,0,.39-.13Z"
         clip-path="url(#clip-path)"
         id="path7" />
    </clipPath>
    <clipPath
       id="clip-path-3">
      <path
         class="cls-4"
         d="M33.77,48.66a1.38,1.38,0,0,1-1,.38,1.42,1.42,0,0,1-1-.38,1.18,1.18,0,0,1-.4-.91,1.24,1.24,0,0,1,.4-.91,1.42,1.42,0,0,1,1-.38,1.38,1.38,0,0,1,1,.38,1.2,1.2,0,0,1,.4.91A1.18,1.18,0,0,1,33.77,48.66Z"
         id="path10" />
    </clipPath>
    <clipPath
       id="clip-path-4">
      <path
         class="cls-5"
         d="M33.87,57l-1.11.42a3,3,0,0,1-1,.14,2,2,0,0,1-1.31-.41,1.32,1.32,0,0,1-.46-1,4.19,4.19,0,0,1,0-.5,5,5,0,0,1,.12-.58l.58-2c0-.2.09-.38.13-.56a2.8,2.8,0,0,0,.05-.48.8.8,0,0,0-.16-.55,1,1,0,0,0-.62-.15,1.47,1.47,0,0,0-.46.07l-.41.13.16-.63c.38-.15.74-.28,1.09-.39a2.93,2.93,0,0,1,1-.17,1.88,1.88,0,0,1,1.29.4,1.35,1.35,0,0,1,.45,1c0,.09,0,.25,0,.47a2.84,2.84,0,0,1-.12.62l-.57,2c0,.17-.09.35-.13.56a2.79,2.79,0,0,0-.06.48.64.64,0,0,0,.19.55,1,1,0,0,0,.63.15,1.73,1.73,0,0,0,.47-.07,2.47,2.47,0,0,0,.39-.13Z"
         clip-path="url(#clip-path-3)"
         id="path13" />
    </clipPath>
    <clipPath
       id="clip-path-5">
      <path
         class="cls-3"
         d="M10,43a9,9,0,1,0,9,9A9,9,0,0,0,10,43Z"
         clip-path="url(#clip-path-2)"
         id="path16" />
    </clipPath>
    <clipPath
       id="clip-path-6">
      <path
         class="cls-6"
         d="M32,43a9,9,0,1,0,9,9A9,9,0,0,0,32,43Z"
         clip-path="url(#clip-path-4)"
         id="path19" />
    </clipPath>
  </defs>
  <title
     id="title24">icon-nodes-on</title>
  <path
     class="cls-1"
     d="M16.77,2H3.23A1.24,1.24,0,0,0,2,3.25v3.2a1.21,1.21,0,0,0,.22.7H17.78a1.21,1.21,0,0,0,.22-.7V3.25A1.24,1.24,0,0,0,16.77,2ZM4.8,6.07A1.22,1.22,0,1,1,6,4.85,1.21,1.21,0,0,1,4.8,6.07Zm6.27-1.36a.27.27,0,1,1,.26-.27A.27.27,0,0,1,11.07,4.71Zm.53.82a.28.28,0,0,1-.27-.28.27.27,0,0,1,.54,0A.28.28,0,0,1,11.6,5.53Zm.53-.82a.27.27,0,1,1,.27-.27A.27.27,0,0,1,12.13,4.71Zm.54.82a.28.28,0,0,1-.27-.28.27.27,0,1,1,.53,0A.28.28,0,0,1,12.67,5.53Zm.53-.82a.27.27,0,1,1,.27-.27A.27.27,0,0,1,13.2,4.71Zm.53.82a.28.28,0,0,1-.26-.28.27.27,0,1,1,.53,0A.28.28,0,0,1,13.73,5.53Zm.54-.82a.27.27,0,1,1,.26-.27A.27.27,0,0,1,14.27,4.71Zm.53.82a.28.28,0,0,1-.27-.28.27.27,0,0,1,.54,0A.28.28,0,0,1,14.8,5.53Zm.53-.82a.27.27,0,1,1,.27-.27A.27.27,0,0,1,15.33,4.71Zm.54.82a.28.28,0,0,1-.27-.28.27.27,0,1,1,.53,0A.28.28,0,0,1,15.87,5.53ZM2.22,7.69A1.27,1.27,0,0,0,2,8.4v3.2a1.21,1.21,0,0,0,.22.7H17.78a1.21,1.21,0,0,0,.22-.7V8.4a1.27,1.27,0,0,0-.22-.71ZM4.8,11.22A1.22,1.22,0,1,1,6,10,1.21,1.21,0,0,1,4.8,11.22Zm6.27-1.36a.27.27,0,1,1,.26-.27A.27.27,0,0,1,11.07,9.86Zm.53.82a.27.27,0,1,1,.27-.27A.27.27,0,0,1,11.6,10.68Zm.53-.82a.27.27,0,1,1,.27-.27A.27.27,0,0,1,12.13,9.86Zm.54.82a.27.27,0,1,1,.26-.27A.27.27,0,0,1,12.67,10.68Zm.53-.82a.27.27,0,1,1,.27-.27A.27.27,0,0,1,13.2,9.86Zm.53.82a.27.27,0,1,1,.27-.27A.27.27,0,0,1,13.73,10.68Zm.54-.82a.27.27,0,1,1,.26-.27A.27.27,0,0,1,14.27,9.86Zm.53.82a.27.27,0,1,1,.27-.27A.27.27,0,0,1,14.8,10.68Zm.53-.82a.27.27,0,1,1,.27-.27A.27.27,0,0,1,15.33,9.86Zm.54.82a.27.27,0,1,1,.26-.27A.27.27,0,0,1,15.87,10.68ZM2.22,12.85a1.21,1.21,0,0,0-.22.7v3.2A1.24,1.24,0,0,0,3.23,18H16.77A1.24,1.24,0,0,0,18,16.75v-3.2a1.21,1.21,0,0,0-.22-.7ZM4.8,16.37A1.22,1.22,0,1,1,6,15.15,1.21,1.21,0,0,1,4.8,16.37ZM11.07,15a.27.27,0,0,1-.27-.27.27.27,0,1,1,.53,0A.27.27,0,0,1,11.07,15Zm.53.81a.27.27,0,1,1,.27-.27A.27.27,0,0,1,11.6,15.83Zm.53-.81a.27.27,0,0,1-.26-.27.27.27,0,1,1,.53,0A.27.27,0,0,1,12.13,15Zm.54.81a.27.27,0,1,1,.26-.27A.27.27,0,0,1,12.67,15.83ZM13.2,15a.27.27,0,0,1-.27-.27.27.27,0,1,1,.54,0A.27.27,0,0,1,13.2,15Zm.53.81a.27.27,0,1,1,.27-.27A.27.27,0,0,1,13.73,15.83Zm.54-.81a.27.27,0,0,1-.27-.27.27.27,0,1,1,.53,0A.27.27,0,0,1,14.27,15Zm.53.81a.27.27,0,1,1,.27-.27A.27.27,0,0,1,14.8,15.83Zm.53-.81a.27.27,0,0,1-.26-.27.27.27,0,1,1,.53,0A.27.27,0,0,1,15.33,15Zm.54.81a.27.27,0,1,1,.26-.27A.27.27,0,0,1,15.87,15.83Z"
     id="path26"
     style="stroke:none;stroke-opacity:1;stroke-width:0.3;stroke-miterlimit:4;stroke-dasharray:none" />
  <path
     class="cls-1"
     d="M11.77,48.66a1.38,1.38,0,0,1-1,.38,1.42,1.42,0,0,1-1-.38,1.18,1.18,0,0,1-.4-.91,1.24,1.24,0,0,1,.4-.91,1.42,1.42,0,0,1,1-.38,1.38,1.38,0,0,1,1,.38,1.2,1.2,0,0,1,.4.91A1.18,1.18,0,0,1,11.77,48.66Z"
     id="path28" />
  <path
     class="cls-1"
     d="M11.87,57l-1.11.42a3,3,0,0,1-1,.14,2,2,0,0,1-1.31-.41,1.32,1.32,0,0,1-.46-1,4.19,4.19,0,0,1,0-.5A5,5,0,0,1,8.18,55l.58-2c.05-.2.09-.38.13-.56a2.8,2.8,0,0,0,0-.48.8.8,0,0,0-.16-.55,1,1,0,0,0-.62-.15,1.47,1.47,0,0,0-.46.07l-.41.13.16-.63c.38-.15.74-.28,1.09-.39a2.93,2.93,0,0,1,1-.17,1.88,1.88,0,0,1,1.29.4,1.35,1.35,0,0,1,.45,1c0,.09,0,.25,0,.47a2.84,2.84,0,0,1-.12.62l-.57,2c0,.17-.09.35-.13.56a2.79,2.79,0,0,0-.06.48.64.64,0,0,0,.19.55,1,1,0,0,0,.63.15,1.73,1.73,0,0,0,.47-.07,2.47,2.47,0,0,0,.39-.13Z"
     id="path30" />
  <path
     class="cls-1"
     d="M10,43a9,9,0,1,0,9,9A9,9,0,0,0,10,43Z"
     id="path32" />
  <g
     class="cls-7"
     clip-path="url(#clip-path-5)"
     id="g36">
    <rect
       class="cls-1"
       x="-1320.65"
       y="-638.65"
       width="1387.68"
       height="780.19"
       id="rect34" />
  </g>
  <path
     class="cls-4"
     d="M33.77,48.66a1.38,1.38,0,0,1-1,.38,1.42,1.42,0,0,1-1-.38,1.18,1.18,0,0,1-.4-.91,1.24,1.24,0,0,1,.4-.91,1.42,1.42,0,0,1,1-.38,1.38,1.38,0,0,1,1,.38,1.2,1.2,0,0,1,.4.91A1.18,1.18,0,0,1,33.77,48.66Z"
     id="path38" />
  <path
     class="cls-4"
     d="M33.87,57l-1.11.42a3,3,0,0,1-1,.14,2,2,0,0,1-1.31-.41,1.32,1.32,0,0,1-.46-1,4.19,4.19,0,0,1,0-.5,5,5,0,0,1,.12-.58l.58-2c0-.2.09-.38.13-.56a2.8,2.8,0,0,0,.05-.48.8.8,0,0,0-.16-.55,1,1,0,0,0-.62-.15,1.47,1.47,0,0,0-.46.07l-.41.13.16-.63c.38-.15.74-.28,1.09-.39a2.93,2.93,0,0,1,1-.17,1.88,1.88,0,0,1,1.29.4,1.35,1.35,0,0,1,.45,1c0,.09,0,.25,0,.47a2.84,2.84,0,0,1-.12.62l-.57,2c0,.17-.09.35-.13.56a2.79,2.79,0,0,0-.06.48.64.64,0,0,0,.19.55,1,1,0,0,0,.63.15,1.73,1.73,0,0,0,.47-.07,2.47,2.47,0,0,0,.39-.13Z"
     id="path40" />
  <path
     class="cls-4"
     d="M32,43a9,9,0,1,0,9,9A9,9,0,0,0,32,43Z"
     id="path42" />
  <g
     class="cls-8"
     clip-path="url(#clip-path-6)"
     id="g46">
    <rect
       class="cls-4"
       x="-1298.65"
       y="-638.65"
       width="1387.68"
       height="780.19"
       id="rect44" />
  </g>
</svg>
