<?xml version="1.0" encoding="UTF-8" standalone="no"?>
<svg
   xmlns:dc="http://purl.org/dc/elements/1.1/"
   xmlns:cc="http://creativecommons.org/ns#"
   xmlns:rdf="http://www.w3.org/1999/02/22-rdf-syntax-ns#"
   xmlns:svg="http://www.w3.org/2000/svg"
   xmlns="http://www.w3.org/2000/svg"
   xmlns:sodipodi="http://sodipodi.sourceforge.net/DTD/sodipodi-0.dtd"
   xmlns:inkscape="http://www.inkscape.org/namespaces/inkscape"
   id="Layer_1"
   data-name="Layer 1"
   viewBox="0 0 20 20"
   version="1.1"
   sodipodi:docname="icon-invoice-off.svg"
   inkscape:version="0.92.4 (unknown)">
  <metadata
     id="metadata65">
    <rdf:RDF>
      <cc:Work
         rdf:about="">
        <dc:format>image/svg+xml</dc:format>
        <dc:type
           rdf:resource="http://purl.org/dc/dcmitype/StillImage" />
        <dc:title>icon-accounts-on</dc:title>
      </cc:Work>
    </rdf:RDF>
  </metadata>
  <sodipodi:namedview
     pagecolor="#ffffff"
     bordercolor="#666666"
     borderopacity="1"
     objecttolerance="10"
     gridtolerance="10"
     guidetolerance="10"
     inkscape:pageopacity="0"
     inkscape:pageshadow="2"
     inkscape:window-width="1920"
     inkscape:window-height="1017"
     id="namedview63"
     showgrid="false"
     inkscape:zoom="16.68772"
     inkscape:cx="25.769426"
     inkscape:cy="-0.09281362"
     inkscape:window-x="0"
     inkscape:window-y="30"
     inkscape:window-maximized="1"
     inkscape:current-layer="Layer_1" />
  <defs
     id="defs28"><style
   id="style2">.cls-1,.cls-2,.cls-3{fill:#f06623;}.cls-2{clip-path:url(#clip-path);}.cls-3{clip-path:url(#clip-path-2);}.cls-4,.cls-5,.cls-6{fill:gray;}.cls-5{clip-path:url(#clip-path-3);}.cls-6{clip-path:url(#clip-path-4);}.cls-7{clip-path:url(#clip-path-5);}.cls-8{clip-path:url(#clip-path-6);}.cls-9{clip-path:url(#clip-path-7);}.cls-10{clip-path:url(#clip-path-8);}</style>
<clipPath
   id="clip-path">
  <path
     class="cls-1"
     d="M11.77,27.66a1.38,1.38,0,0,1-1,.38,1.42,1.42,0,0,1-1-.38,1.18,1.18,0,0,1-.4-.91,1.24,1.24,0,0,1,.4-.91,1.42,1.42,0,0,1,1-.38,1.38,1.38,0,0,1,1,.38,1.2,1.2,0,0,1,.4.91A1.18,1.18,0,0,1,11.77,27.66Z"
     id="path4" />
</clipPath>
<clipPath
   id="clip-path-2">
  <path
     class="cls-2"
     d="M11.87,36l-1.11.42a3,3,0,0,1-1,.14,2,2,0,0,1-1.31-.41,1.32,1.32,0,0,1-.46-1,4.19,4.19,0,0,1,0-.5A5,5,0,0,1,8.18,34l.58-2c.05-.2.09-.38.13-.56a2.8,2.8,0,0,0,0-.48.8.8,0,0,0-.16-.55,1,1,0,0,0-.62-.15,1.47,1.47,0,0,0-.46.07l-.41.13.16-.63c.38-.15.74-.28,1.09-.39a2.93,2.93,0,0,1,1-.17,1.88,1.88,0,0,1,1.29.4,1.35,1.35,0,0,1,.45,1c0,.09,0,.25,0,.47a2.84,2.84,0,0,1-.12.62l-.57,2c0,.17-.09.35-.13.56a2.79,2.79,0,0,0-.06.48.64.64,0,0,0,.19.55,1,1,0,0,0,.63.15,1.73,1.73,0,0,0,.47-.07,2.47,2.47,0,0,0,.39-.13Z"
     clip-path="url(#clip-path)"
     id="path7" />
</clipPath>
<clipPath
   id="clip-path-3">
  <path
     class="cls-4"
     d="M33.77,27.66a1.38,1.38,0,0,1-1,.38,1.42,1.42,0,0,1-1-.38,1.18,1.18,0,0,1-.4-.91,1.24,1.24,0,0,1,.4-.91,1.42,1.42,0,0,1,1-.38,1.38,1.38,0,0,1,1,.38,1.2,1.2,0,0,1,.4.91A1.18,1.18,0,0,1,33.77,27.66Z"
     id="path10" />
</clipPath>
<clipPath
   id="clip-path-4">
  <path
     class="cls-5"
     d="M33.87,36l-1.11.42a3,3,0,0,1-1,.14,2,2,0,0,1-1.31-.41,1.32,1.32,0,0,1-.46-1,4.19,4.19,0,0,1,0-.5,5,5,0,0,1,.12-.58l.58-2c0-.2.09-.38.13-.56a2.8,2.8,0,0,0,.05-.48.8.8,0,0,0-.16-.55,1,1,0,0,0-.62-.15,1.47,1.47,0,0,0-.46.07l-.41.13.16-.63c.38-.15.74-.28,1.09-.39a2.93,2.93,0,0,1,1-.17,1.88,1.88,0,0,1,1.29.4,1.35,1.35,0,0,1,.45,1c0,.09,0,.25,0,.47a2.84,2.84,0,0,1-.12.62l-.57,2c0,.17-.09.35-.13.56a2.79,2.79,0,0,0-.06.48.64.64,0,0,0,.19.55,1,1,0,0,0,.63.15,1.73,1.73,0,0,0,.47-.07,2.47,2.47,0,0,0,.39-.13Z"
     clip-path="url(#clip-path-3)"
     id="path13" />
</clipPath>
<clipPath
   id="clip-path-5">
  <path
     class="cls-3"
     d="M10,22a9,9,0,1,0,9,9A9,9,0,0,0,10,22Z"
     clip-path="url(#clip-path-2)"
     id="path16" />
</clipPath>
<clipPath
   id="clip-path-6">
  <rect
     class="cls-1"
     x="-1320.65"
     y="-659.65"
     width="1387.68"
     height="780.19"
     id="rect19" />
</clipPath>
<clipPath
   id="clip-path-7">
  <path
     class="cls-6"
     d="M32,22a9,9,0,1,0,9,9A9,9,0,0,0,32,22Z"
     clip-path="url(#clip-path-4)"
     id="path22" />
</clipPath>
<clipPath
   id="clip-path-8">
  <rect
     class="cls-4"
     x="-1298.65"
     y="-659.65"
     width="1387.68"
     height="780.19"
     id="rect25" />
</clipPath>

	

		
		
		
		
		
		
		
		
		
		
		
		
		
	</defs>
  <title
     id="title30">icon-accounts-on</title>
  <path
     inkscape:connector-curvature="0"
     d="M 18.327119,0.95801934 H 1.7954378 c -0.253742,0 -0.4613492,0.20760716 -0.4613492,0.46134926 0,0.2537421 0.2076072,0.4613492 0.4613492,0.4613492 H 2.7911833 V 18.504669 c 0,0.169161 0.09227,0.326789 0.2422083,0.407525 0.1499385,0.08074 0.3306337,0.07305 0.472883,-0.02307 l 2.0030246,-1.334068 2.0107138,1.337913 c 0.1537831,0.103804 0.3575457,0.103804 0.5113287,0 l 2.0030243,-1.334068 2.010714,1.337913 c 0.153783,0.103803 0.357546,0.103803 0.511329,0 l 2.003024,-1.334069 2.010714,1.337913 c 0.07689,0.04998 0.165317,0.07689 0.253742,0.07689 0.07305,0 0.149939,-0.01922 0.219141,-0.05382 0.149939,-0.08074 0.242209,-0.238364 0.242209,-0.407526 l -0.0077,-16.6239504 h 1.04957 c 0.253742,0 0.461349,-0.2076072 0.461349,-0.4613493 0,-0.2537421 -0.207607,-0.47288296 -0.461349,-0.47288296 z M 16.366385,17.643484 14.81702,16.613137 c -0.153783,-0.103804 -0.357546,-0.103804 -0.511329,0 l -2.003024,1.337913 -2.010714,-1.337913 c -0.153783,-0.103804 -0.3575456,-0.103804 -0.5113287,0 L 7.7775997,17.947205 5.7668859,16.613137 c -0.1537831,-0.103804 -0.3575457,-0.103804 -0.5113288,0 L 3.7138818,17.639639 V 1.8768732 H 16.36254 Z"
     id="path951"
     style="stroke-width:0.03844577;fill:#808080;fill-opacity:1" />
  <path
     inkscape:connector-curvature="0"
     d="m 5.8360883,8.3242289 h 4.8326337 c 0.253742,0 0.461349,-0.2076072 0.461349,-0.4613493 0,-0.2537421 -0.207607,-0.4613492 -0.461349,-0.4613492 H 5.8360883 c -0.2537421,0 -0.4613493,0.2076071 -0.4613493,0.4613492 0,0.2537421 0.2037626,0.4613493 0.4613493,0.4613493 z"
     id="path953"
     style="stroke-width:0.03844577;fill:#808080;fill-opacity:1" />
  <path
     inkscape:connector-curvature="0"
     d="m 5.8360883,9.9274175 h 3.6215915 c 0.2537421,0 0.4613493,-0.2076072 0.4613493,-0.4613493 0,-0.253742 -0.2076072,-0.4613492 -0.4613493,-0.4613492 H 5.8360883 c -0.2537421,0 -0.4613493,0.2076072 -0.4613493,0.4613492 0,0.2537421 0.2037626,0.4613493 0.4613493,0.4613493 z"
     id="path955"
     style="stroke-width:0.03844577;fill:#808080;fill-opacity:1" />
  <path
     inkscape:connector-curvature="0"
     d="m 13.083116,8.3242289 h 1.207197 c 0.253742,0 0.461349,-0.2076072 0.461349,-0.4613493 0,-0.2537421 -0.207607,-0.4613492 -0.461349,-0.4613492 h -1.207197 c -0.253742,0 -0.461349,0.2076071 -0.461349,0.4613492 0,0.2537421 0.203762,0.4613493 0.461349,0.4613493 z"
     id="path957"
     style="stroke-width:0.03844577;fill:#808080;fill-opacity:1" />
  <path
     inkscape:connector-curvature="0"
     d="m 13.083116,9.9274175 h 1.207197 c 0.253742,0 0.461349,-0.2076072 0.461349,-0.4613493 0,-0.253742 -0.207607,-0.4613492 -0.461349,-0.4613492 h -1.207197 c -0.253742,0 -0.461349,0.2076072 -0.461349,0.4613492 0,0.2537421 0.203762,0.4613493 0.461349,0.4613493 z"
     id="path959"
     style="stroke-width:0.03844577;fill:#808080;fill-opacity:1" />
  <path
     inkscape:connector-curvature="0"
     d="m 5.8360883,4.6219012 h 4.8326337 c 0.253742,0 0.461349,-0.2076071 0.461349,-0.4613492 0,-0.2537421 -0.207607,-0.4613493 -0.461349,-0.4613493 H 5.8360883 c -0.2537421,0 -0.4613493,0.2076072 -0.4613493,0.4613493 0,0.2537421 0.2037626,0.4613492 0.4613493,0.4613492 z"
     id="path961"
     style="stroke-width:0.03844577;fill:#808080;fill-opacity:1" />
  <path
     inkscape:connector-curvature="0"
     d="m 5.8360883,6.2212453 h 3.6215915 c 0.2537421,0 0.4613493,-0.2076072 0.4613493,-0.4613493 0,-0.2537421 -0.2076072,-0.4613492 -0.4613493,-0.4613492 H 5.8360883 c -0.2537421,0 -0.4613493,0.2076071 -0.4613493,0.4613492 0,0.2537421 0.2037626,0.4613493 0.4613493,0.4613493 z"
     id="path963"
     style="stroke-width:0.03844577;fill:#808080;fill-opacity:1" />
  <path
     inkscape:connector-curvature="0"
     d="m 13.083116,4.6219012 h 1.207197 c 0.253742,0 0.461349,-0.2076071 0.461349,-0.4613492 0,-0.2537421 -0.207607,-0.4613493 -0.461349,-0.4613493 h -1.207197 c -0.253742,0 -0.461349,0.2076072 -0.461349,0.4613493 0,0.2537421 0.203762,0.4613492 0.461349,0.4613492 z"
     id="path965"
     style="stroke-width:0.03844577;fill:#808080;fill-opacity:1" />
  <path
     inkscape:connector-curvature="0"
     d="m 13.083116,6.2212453 h 1.207197 c 0.253742,0 0.461349,-0.2076072 0.461349,-0.4613493 0,-0.2537421 -0.207607,-0.4613492 -0.461349,-0.4613492 h -1.207197 c -0.253742,0 -0.461349,0.2076071 -0.461349,0.4613492 0,0.2537421 0.203762,0.4613493 0.461349,0.4613493 z"
     id="path967"
     style="stroke-width:0.03844577;fill:#808080;fill-opacity:1" />
  <path
     inkscape:connector-curvature="0"
     d="m 5.8360883,12.072691 h 4.8326337 c 0.253742,0 0.461349,-0.207607 0.461349,-0.461349 0,-0.253742 -0.207607,-0.461349 -0.461349,-0.461349 H 5.8360883 c -0.2537421,0 -0.4613493,0.207607 -0.4613493,0.461349 0,0.253742 0.2037626,0.461349 0.4613493,0.461349 z"
     id="path969"
     style="stroke-width:0.03844577;fill:#808080;fill-opacity:1" />
  <path
     inkscape:connector-curvature="0"
     d="m 5.8360883,13.672035 h 3.6215915 c 0.2537421,0 0.4613493,-0.207607 0.4613493,-0.461349 0,-0.253742 -0.2076072,-0.461349 -0.4613493,-0.461349 H 5.8360883 c -0.2537421,0 -0.4613493,0.207607 -0.4613493,0.461349 0,0.253742 0.2037626,0.461349 0.4613493,0.461349 z"
     id="path971"
     style="stroke-width:0.03844577;fill:#808080;fill-opacity:1" />
  <path
     inkscape:connector-curvature="0"
     d="m 13.083116,12.072691 h 1.207197 c 0.253742,0 0.461349,-0.207607 0.461349,-0.461349 0,-0.253742 -0.207607,-0.461349 -0.461349,-0.461349 h -1.207197 c -0.253742,0 -0.461349,0.207607 -0.461349,0.461349 0,0.253742 0.203762,0.461349 0.461349,0.461349 z"
     id="path973"
     style="stroke-width:0.03844577;fill:#808080;fill-opacity:1" />
  <path
     inkscape:connector-curvature="0"
     d="m 13.083116,13.672035 h 1.207197 c 0.253742,0 0.461349,-0.207607 0.461349,-0.461349 0,-0.253742 -0.207607,-0.461349 -0.461349,-0.461349 h -1.207197 c -0.253742,0 -0.461349,0.207607 -0.461349,0.461349 0,0.253742 0.203762,0.461349 0.461349,0.461349 z"
     id="path975"
     style="stroke-width:0.03844577;fill:#808080;fill-opacity:1" />
  <g
     id="g981"
     transform="matrix(0.03844577,0,0,0.03844577,1.0515122,0.95801934)">
</g>
  <g
     id="g983"
     transform="matrix(0.03844577,0,0,0.03844577,1.0515122,0.95801934)">
</g>
  <g
     id="g985"
     transform="matrix(0.03844577,0,0,0.03844577,1.0515122,0.95801934)">
</g>
  <g
     id="g987"
     transform="matrix(0.03844577,0,0,0.03844577,1.0515122,0.95801934)">
</g>
  <g
     id="g989"
     transform="matrix(0.03844577,0,0,0.03844577,1.0515122,0.95801934)">
</g>
  <g
     id="g991"
     transform="matrix(0.03844577,0,0,0.03844577,1.0515122,0.95801934)">
</g>
  <g
     id="g993"
     transform="matrix(0.03844577,0,0,0.03844577,1.0515122,0.95801934)">
</g>
  <g
     id="g995"
     transform="matrix(0.03844577,0,0,0.03844577,1.0515122,0.95801934)">
</g>
  <g
     id="g997"
     transform="matrix(0.03844577,0,0,0.03844577,1.0515122,0.95801934)">
</g>
  <g
     id="g999"
     transform="matrix(0.03844577,0,0,0.03844577,1.0515122,0.95801934)">
</g>
  <g
     id="g1001"
     transform="matrix(0.03844577,0,0,0.03844577,1.0515122,0.95801934)">
</g>
  <g
     id="g1003"
     transform="matrix(0.03844577,0,0,0.03844577,1.0515122,0.95801934)">
</g>
  <g
     id="g1005"
     transform="matrix(0.03844577,0,0,0.03844577,1.0515122,0.95801934)">
</g>
  <g
     id="g1007"
     transform="matrix(0.03844577,0,0,0.03844577,1.0515122,0.95801934)">
</g>
  <g
     id="g1009"
     transform="matrix(0.03844577,0,0,0.03844577,1.0515122,0.95801934)">
</g>
</svg>
